<?xml version="1.0" encoding="utf-8"?>
<!-- Generator: Adobe Illustrator 16.0.0, SVG Export Plug-In . SVG Version: 6.00 Build 0)  -->
<!DOCTYPE svg PUBLIC "-//W3C//DTD SVG 1.1//EN" "http://www.w3.org/Graphics/SVG/1.1/DTD/svg11.dtd">
<svg version="1.1" id="Layer_2" xmlns="http://www.w3.org/2000/svg" xmlns:xlink="http://www.w3.org/1999/xlink" x="0px" y="0px"
	 width="400px" height="300px" viewBox="0 0 400 300" enable-background="new 0 0 400 300" xml:space="preserve">
<g>
	<path fill="#2B2B2B" d="M192.485,282.463c0,0-40.576,0-55.22,0c-1.83,0-3.442-0.238-4.859-0.654
		c-9.927-2.92-10.394-14.598-10.394-14.598l0,0c0,0,0,0,0-125.084V19.177c0,0,0.305-3.965,3.356-3.965s67.118,0,67.118,0
		s-2.44,0,9.458,0c0,0,64.066,0,67.116,0c3.051,0,3.357,3.965,3.357,3.965v122.95c0,125.084,0,125.084,0,125.084l0,0
		c0,0-0.468,11.678-10.395,14.598c-1.417,0.416-3.029,0.654-4.859,0.654c-14.643,0-55.219,0-55.219,0H192.485z"/>
	<circle fill="#27423C" cx="145.314" cy="113.297" r="5.338"/>
	<rect x="136.15" y="52.434" fill="#4A494A" width="120.988" height="42.404"/>
	<rect x="140.715" y="56.703" fill="#5F6C6C" width="112.176" height="28.676"/>
	<g>
		<path fill="#87ADA2" d="M243.13,72.041c0,4.4-3.6,8-8,8h-77.262c-4.4,0-8-3.6-8-8v-1.998c0-4.4,3.6-8,8-8h77.262c4.4,0,8,3.6,8,8
			V72.041z"/>
	</g>
	<circle fill="#E82033" cx="170.815" cy="113.297" r="5.339"/>
	<circle fill="#27423C" cx="145.314" cy="152.158" r="9.447"/>
	<circle fill="#27423C" cx="171.097" cy="152.158" r="9.447"/>
	<circle fill="#27423C" cx="248.449" cy="152.158" r="9.447"/>
	<circle fill="#27423C" cx="222.665" cy="152.158" r="9.446"/>
	<circle fill="#27423C" cx="196.88" cy="152.158" r="9.445"/>
	<circle fill="#3E3432" cx="145.314" cy="177.805" r="9.447"/>
	<circle cx="171.097" cy="177.805" r="9.447"/>
	<circle fill="#3E3432" cx="248.449" cy="177.805" r="9.447"/>
	<circle cx="222.665" cy="177.805" r="9.446"/>
	<circle cx="196.88" cy="177.805" r="9.445"/>
	<circle fill="#3E3432" cx="145.647" cy="203.455" r="9.447"/>
	<circle cx="171.431" cy="203.455" r="9.446"/>
	<circle fill="#3E3432" cx="248.781" cy="203.455" r="9.446"/>
	<circle cx="222.998" cy="203.455" r="9.447"/>
	<circle cx="197.214" cy="203.455" r="9.446"/>
	<path fill="#3E3432" d="M154.76,229.104c0,5.215-4.229,9.447-9.447,9.447c-5.216,0-9.446-4.232-9.446-9.447
		c0-5.221,4.23-9.449,9.446-9.449C150.531,219.654,154.76,223.883,154.76,229.104z"/>
	<path d="M180.544,229.104c0,5.215-4.229,9.447-9.446,9.447c-5.217,0-9.447-4.232-9.447-9.447c0-5.221,4.229-9.449,9.447-9.449
		C176.314,219.654,180.544,223.883,180.544,229.104z"/>
	<path fill="#3E3432" d="M257.896,229.104c0,5.215-4.231,9.447-9.446,9.447c-5.217,0-9.447-4.232-9.447-9.447
		c0-5.221,4.23-9.449,9.447-9.449C253.665,219.654,257.896,223.883,257.896,229.104z"/>
	<path d="M232.111,229.104c0,5.215-4.229,9.447-9.446,9.447s-9.446-4.232-9.446-9.447c0-5.221,4.229-9.449,9.446-9.449
		S232.111,223.883,232.111,229.104z"/>
	<path d="M206.325,229.104c0,5.215-4.228,9.447-9.444,9.447s-9.445-4.232-9.445-9.447c0-5.221,4.229-9.449,9.445-9.449
		S206.325,223.883,206.325,229.104z"/>
	<path fill="#3E3432" d="M154.76,254.752c0,5.213-4.229,9.445-9.447,9.445c-5.216,0-9.446-4.232-9.446-9.445
		c0-5.219,4.23-9.447,9.446-9.447C150.531,245.305,154.76,249.533,154.76,254.752z"/>
	<path d="M180.544,254.752c0,5.213-4.229,9.445-9.446,9.445c-5.217,0-9.447-4.232-9.447-9.445c0-5.219,4.229-9.447,9.447-9.447
		C176.314,245.305,180.544,249.533,180.544,254.752z"/>
	<path fill="#3E3432" d="M257.896,254.752c0,5.213-4.231,9.445-9.446,9.445c-5.217,0-9.447-4.232-9.447-9.445
		c0-5.219,4.23-9.447,9.447-9.447C253.665,245.305,257.896,249.533,257.896,254.752z"/>
	<path fill="#D5A862" d="M232.111,254.752c0,5.213-4.229,9.445-9.446,9.445s-9.446-4.232-9.446-9.445
		c0-5.219,4.229-9.447,9.446-9.447S232.111,249.533,232.111,254.752z"/>
	<path fill="#3E3432" d="M206.325,254.752c0,5.213-4.228,9.445-9.444,9.445s-9.445-4.232-9.445-9.445
		c0-5.219,4.229-9.447,9.445-9.447S206.325,249.533,206.325,254.752z"/>
	<circle fill="#FFFFFF" cx="145.314" cy="126.566" r="1.83"/>
	<circle fill="none" stroke="#FFFFFF" stroke-miterlimit="10" cx="170.816" cy="126.566" r="1.831"/>
	<circle fill="#FFFFFF" cx="145.314" cy="120.465" r="0.61"/>
	<circle fill="#FFFFFF" cx="170.816" cy="120.465" r="0.611"/>
	<g>
		<path fill-rule="evenodd" clip-rule="evenodd" fill="#E9E9E9" d="M144.499,40.538v-0.004c0.239-0.154,0.621-0.417,0.621-1.265
			c0-1.094-0.625-1.589-1.47-1.589c-0.287,0-1.845,0-1.845,0v6.009c0,0,1.028,0,1.836,0c1.039,0,1.547-0.704,1.547-1.753
			C145.188,40.957,144.766,40.688,144.499,40.538L144.499,40.538L144.499,40.538z M142.889,38.606c0,0,0.304,0,0.589,0
			c0.303,0,0.549,0.206,0.549,0.768c0,0.567-0.284,0.765-0.549,0.765c-0.293,0-0.589,0-0.589,0V38.606L142.889,38.606
			L142.889,38.606z M143.493,42.762c-0.285,0-0.604,0-0.604,0v-1.695c0,0,0.311,0,0.604,0c0.412,0,0.604,0.282,0.604,0.784
			C144.097,42.544,143.868,42.762,143.493,42.762L143.493,42.762L143.493,42.762z"/>
		<path fill-rule="evenodd" clip-rule="evenodd" fill="#E9E9E9" d="M149.392,41.678c0-0.748-0.254-0.96-0.601-1.14v-0.004
			c0.239-0.154,0.618-0.417,0.618-1.265c0-1.094-0.623-1.589-1.467-1.589c-0.286,0-1.846,0-1.846,0v6.009h1.085l0-2.621
			c0,0,0.294,0,0.588,0c0.308,0,0.529,0.234,0.529,0.763v1.858h1.092L149.392,41.678L149.392,41.678L149.392,41.678z
			 M147.182,38.606c0,0,0.305,0,0.588,0c0.304,0,0.549,0.206,0.549,0.768c0,0.567-0.284,0.765-0.549,0.765c-0.294,0-0.588,0-0.588,0
			V38.606L147.182,38.606L147.182,38.606z"/>
		<path fill-rule="evenodd" clip-rule="evenodd" fill="#E9E9E9" d="M152.211,35.678c-0.458,0-1.789,0.094-1.789,1.31v6.702h1.084
			v-2.623h1.409l-0.001,2.621H154v-6.7C154,35.771,152.667,35.678,152.211,35.678L152.211,35.678L152.211,35.678z M151.506,37.137
			c0-0.453,0.454-0.511,0.705-0.511c0.251,0,0.704,0.058,0.704,0.511v3.001h-1.41L151.506,37.137L151.506,37.137L151.506,37.137z"/>
		<path fill-rule="evenodd" clip-rule="evenodd" fill="#E9E9E9" d="M157.248,37.68v4.729c0,0.24-0.218,0.402-0.542,0.402
			c-0.324,0-0.539-0.163-0.539-0.402V37.68h-1.084l-0.001,4.888c0,0.781,0.739,1.081,1.319,1.158h0.611
			c0.577-0.077,1.32-0.377,1.32-1.161V37.68H157.248L157.248,37.68L157.248,37.68z"/>
		<path fill-rule="evenodd" clip-rule="evenodd" fill="#E9E9E9" d="M161.581,43.688V38.96c0-0.242-0.218-0.401-0.542-0.401
			c-0.326,0-0.54,0.16-0.54,0.401l-0.001,4.728h-1.083l-0.001-4.888c0-0.929,1.048-1.176,1.625-1.176
			c0.573,0,1.625,0.247,1.625,1.179v4.885H161.581L161.581,43.688L161.581,43.688z"/>
	</g>
	<g>
		<path fill="#FFFFFF" d="M170.924,226.756h-0.017l-0.965,0.521l-0.146-0.572l1.213-0.65h0.641v5.555h-0.727V226.756z"/>
	</g>
	<g>
		<path fill="#FFFFFF" d="M195.076,231.609v-0.461l0.589-0.573c1.418-1.35,2.059-2.067,2.068-2.905c0-0.563-0.273-1.085-1.103-1.085
			c-0.504,0-0.923,0.257-1.179,0.47l-0.239-0.529c0.384-0.325,0.931-0.564,1.572-0.564c1.196,0,1.7,0.82,1.7,1.615
			c0,1.025-0.743,1.854-1.914,2.982l-0.444,0.41v0.017h2.495v0.624H195.076z"/>
	</g>
	<g>
		<path fill="#FFFFFF" d="M221.039,230.746c0.213,0.137,0.709,0.351,1.23,0.351c0.965,0,1.265-0.615,1.256-1.077
			c-0.009-0.777-0.709-1.11-1.436-1.11h-0.419v-0.563h0.419c0.547,0,1.239-0.282,1.239-0.94c0-0.444-0.282-0.837-0.974-0.837
			c-0.444,0-0.872,0.196-1.111,0.367l-0.197-0.547c0.291-0.214,0.854-0.428,1.453-0.428c1.094,0,1.589,0.649,1.589,1.324
			c0,0.573-0.342,1.061-1.025,1.308v0.018c0.684,0.137,1.239,0.649,1.239,1.427c0,0.889-0.692,1.666-2.025,1.666
			c-0.624,0-1.17-0.196-1.444-0.376L221.039,230.746z"/>
	</g>
	<g>
		<path fill="#FFFFFF" d="M171.949,205.961v-1.513h-2.581v-0.495l2.479-3.547h0.812v3.453h0.777v0.589h-0.777v1.513H171.949z
			 M171.949,203.859v-1.854c0-0.291,0.008-0.581,0.025-0.872h-0.025c-0.171,0.325-0.308,0.564-0.462,0.82l-1.358,1.889v0.018
			H171.949z"/>
	</g>
	<g>
		<path fill="#FFFFFF" d="M198.724,201.039h-2.119l-0.214,1.427c0.128-0.017,0.248-0.034,0.453-0.034
			c0.427,0,0.854,0.094,1.196,0.299c0.436,0.248,0.794,0.727,0.794,1.428c0,1.085-0.863,1.896-2.068,1.896
			c-0.606,0-1.119-0.171-1.384-0.342l0.188-0.572c0.23,0.137,0.684,0.308,1.188,0.308c0.709,0,1.316-0.462,1.316-1.205
			c-0.009-0.718-0.487-1.23-1.598-1.23c-0.316,0-0.564,0.034-0.769,0.06l0.359-2.666h2.658V201.039z"/>
	</g>
	<g>
		<path fill="#FFFFFF" d="M224.363,200.937c-0.154-0.009-0.351,0-0.564,0.034c-1.179,0.196-1.803,1.06-1.931,1.974h0.025
			c0.265-0.351,0.727-0.641,1.342-0.641c0.982,0,1.675,0.709,1.675,1.794c0,1.018-0.692,1.957-1.846,1.957
			c-1.188,0-1.965-0.923-1.965-2.367c0-1.094,0.393-1.956,0.94-2.503c0.461-0.453,1.077-0.735,1.777-0.82
			c0.222-0.034,0.41-0.043,0.547-0.043V200.937z M224.149,204.141c0-0.795-0.453-1.273-1.145-1.273
			c-0.453,0-0.872,0.282-1.077,0.684c-0.051,0.086-0.085,0.197-0.085,0.334c0.017,0.914,0.436,1.589,1.222,1.589
			C223.714,205.474,224.149,204.936,224.149,204.141z"/>
	</g>
	<g>
		<path fill="#FFFFFF" d="M172.897,174.76v0.495l-2.418,5.059h-0.777l2.409-4.913v-0.018h-2.717v-0.623H172.897z"/>
	</g>
	<g>
		<path fill="#FFFFFF" d="M195.008,178.903c0-0.7,0.418-1.196,1.102-1.486l-0.008-0.026c-0.615-0.29-0.88-0.769-0.88-1.247
			c0-0.88,0.744-1.479,1.717-1.479c1.077,0,1.615,0.675,1.615,1.367c0,0.47-0.23,0.975-0.914,1.299v0.026
			c0.692,0.273,1.119,0.76,1.119,1.436c0,0.965-0.829,1.614-1.889,1.614C195.708,180.407,195.008,179.715,195.008,178.903z
			 M197.998,178.869c0-0.675-0.47-1-1.222-1.213c-0.649,0.188-1,0.615-1,1.145c-0.025,0.564,0.402,1.06,1.111,1.06
			C197.562,179.86,197.998,179.441,197.998,178.869z M195.931,176.092c0,0.556,0.418,0.855,1.06,1.025
			c0.479-0.162,0.846-0.504,0.846-1.008c0-0.444-0.265-0.906-0.94-0.906C196.272,175.203,195.931,175.613,195.931,176.092z"/>
	</g>
	<g>
		<path fill="#FFFFFF" d="M221.295,179.783c0.162,0.018,0.351,0,0.606-0.025c0.436-0.06,0.846-0.239,1.162-0.538
			c0.368-0.333,0.633-0.82,0.735-1.479h-0.026c-0.308,0.376-0.752,0.599-1.307,0.599c-1,0-1.641-0.752-1.641-1.701
			c0-1.051,0.76-1.974,1.896-1.974c1.137,0,1.837,0.923,1.837,2.342c0,1.222-0.41,2.076-0.957,2.606
			c-0.427,0.418-1.017,0.675-1.615,0.743c-0.273,0.042-0.513,0.051-0.692,0.042V179.783z M221.568,176.588
			c0,0.692,0.419,1.18,1.068,1.18c0.504,0,0.897-0.248,1.094-0.582c0.042-0.068,0.068-0.153,0.068-0.273
			c0-0.948-0.351-1.674-1.137-1.674C222.021,175.238,221.568,175.802,221.568,176.588z"/>
	</g>
	<g>
		<path fill="#FFFFFF" d="M246.246,178.288v-0.513h4.409v0.513H246.246z M247.998,176.537c0-0.282,0.188-0.479,0.461-0.479
			c0.265,0,0.444,0.196,0.444,0.479c0,0.265-0.171,0.47-0.453,0.47C248.177,177.007,247.998,176.802,247.998,176.537z
			 M247.998,179.536c0-0.282,0.188-0.479,0.461-0.479c0.265,0,0.444,0.196,0.444,0.479c0,0.265-0.171,0.47-0.453,0.47
			C248.177,180.006,247.998,179.801,247.998,179.536z"/>
	</g>
	<g>
		<path fill="#FFFFFF" d="M246.956,201.467l1.829,1.871l1.829-1.871l0.376,0.375l-1.837,1.872l1.837,1.871l-0.376,0.376
			l-1.829-1.871l-1.829,1.871l-0.376-0.376l1.829-1.871l-1.829-1.872L246.956,201.467z"/>
	</g>
	<g>
		<path fill="#FFFFFF" d="M144.839,152.135c-0.043-0.803-0.094-1.769-0.085-2.486h-0.026c-0.196,0.675-0.436,1.393-0.726,2.188
			l-1.017,2.794h-0.563l-0.932-2.743c-0.273-0.812-0.504-1.555-0.667-2.238h-0.017c-0.017,0.718-0.06,1.684-0.111,2.546l-0.153,2.47
			h-0.709l0.402-5.76h0.948l0.982,2.786c0.239,0.709,0.436,1.342,0.581,1.939h0.026c0.145-0.581,0.35-1.213,0.607-1.939l1.025-2.786
			h0.948l0.359,5.76h-0.726L144.839,152.135z"/>
		<path fill="#FFFFFF" d="M149.023,150.118v2.008h1.931v0.513h-1.931v2.025h-0.547v-2.025h-1.931v-0.513h1.931v-2.008H149.023z"/>
	</g>
	<g>
		<path fill="#FFFFFF" d="M171.83,152.135c-0.043-0.803-0.094-1.769-0.085-2.486h-0.026c-0.196,0.675-0.436,1.393-0.726,2.188
			l-1.017,2.794h-0.563l-0.932-2.743c-0.273-0.812-0.504-1.555-0.667-2.238h-0.017c-0.017,0.718-0.06,1.684-0.111,2.546l-0.153,2.47
			h-0.709l0.402-5.76h0.948l0.982,2.786c0.239,0.709,0.436,1.342,0.581,1.939h0.026c0.145-0.581,0.35-1.213,0.607-1.939l1.025-2.786
			h0.948l0.359,5.76h-0.726L171.83,152.135z"/>
		<path fill="#FFFFFF" d="M175.613,152.075v0.556h-2.111v-0.556H175.613z"/>
	</g>
	<g>
		<path fill="#FFFFFF" d="M196.653,152.135c-0.043-0.803-0.094-1.769-0.085-2.486h-0.026c-0.196,0.675-0.436,1.393-0.726,2.188
			l-1.017,2.794h-0.563l-0.932-2.743c-0.273-0.812-0.504-1.555-0.667-2.238h-0.017c-0.017,0.718-0.06,1.684-0.111,2.546l-0.153,2.47
			h-0.709l0.402-5.76h0.948l0.982,2.786c0.239,0.709,0.436,1.342,0.581,1.939h0.026c0.145-0.581,0.35-1.213,0.607-1.939l1.025-2.786
			h0.948l0.359,5.76h-0.726L196.653,152.135z"/>
		<path fill="#FFFFFF" d="M198.667,148.981c0.376-0.077,0.915-0.119,1.427-0.119c0.794,0,1.307,0.146,1.666,0.47
			c0.291,0.256,0.453,0.649,0.453,1.094c0,0.761-0.479,1.265-1.085,1.47v0.025c0.444,0.154,0.709,0.564,0.846,1.162
			c0.188,0.804,0.324,1.358,0.444,1.581h-0.77c-0.094-0.162-0.222-0.658-0.384-1.376c-0.171-0.794-0.479-1.094-1.154-1.119h-0.7
			v2.495h-0.744V148.981z M199.411,151.605h0.76c0.794,0,1.299-0.437,1.299-1.094c0-0.744-0.539-1.068-1.325-1.077
			c-0.358,0-0.615,0.034-0.734,0.068V151.605z"/>
	</g>
	<g>
		<path fill="#FFFFFF" d="M222.258,152.135c-0.043-0.803-0.094-1.769-0.085-2.486h-0.026c-0.196,0.675-0.436,1.393-0.726,2.188
			l-1.017,2.794h-0.563l-0.932-2.743c-0.273-0.812-0.504-1.555-0.667-2.238h-0.017c-0.017,0.718-0.06,1.684-0.111,2.546l-0.153,2.47
			h-0.709l0.402-5.76h0.948l0.982,2.786c0.239,0.709,0.436,1.342,0.581,1.939h0.026c0.145-0.581,0.35-1.213,0.607-1.939l1.025-2.786
			h0.948l0.359,5.76h-0.726L222.258,152.135z"/>
		<path fill="#FFFFFF" d="M228.297,154.477c-0.273,0.137-0.82,0.273-1.521,0.273c-1.623,0-2.845-1.025-2.845-2.914
			c0-1.803,1.222-3.025,3.008-3.025c0.718,0,1.17,0.154,1.367,0.257l-0.179,0.606c-0.282-0.137-0.684-0.239-1.162-0.239
			c-1.351,0-2.248,0.863-2.248,2.376c0,1.409,0.812,2.315,2.213,2.315c0.453,0,0.914-0.095,1.213-0.239L228.297,154.477z"/>
	</g>
	<g>
		<path fill="#FFFFFF" d="M139.498,179.895l2.008-5.34h0.846l1.982,5.332v0.427h-4.836V179.895z M143.505,179.689l-1.17-3.17
			c-0.146-0.401-0.325-0.914-0.428-1.281h-0.025c-0.085,0.29-0.239,0.769-0.385,1.17l-1.205,3.281H143.505z"/>
		<path fill="#FFFFFF" d="M147.469,176.323c0,1.171-0.615,1.751-1.333,1.751c-0.692,0-1.29-0.555-1.299-1.674
			c0-1.111,0.606-1.735,1.342-1.735C146.956,174.665,147.469,175.264,147.469,176.323z M145.435,176.374
			c-0.017,0.71,0.248,1.248,0.718,1.248c0.496,0,0.718-0.53,0.718-1.265c0-0.676-0.197-1.239-0.718-1.239
			C145.683,175.118,145.435,175.674,145.435,176.374z M146.084,180.407l3.264-5.742h0.479l-3.264,5.742H146.084z M151.083,178.621
			c0,1.171-0.615,1.752-1.324,1.752c-0.692,0-1.29-0.555-1.299-1.666c0-1.119,0.606-1.743,1.342-1.743
			C150.579,176.964,151.083,177.562,151.083,178.621z M149.05,178.673c-0.009,0.709,0.265,1.247,0.726,1.247
			c0.496,0,0.718-0.529,0.718-1.264c0-0.676-0.197-1.239-0.718-1.239C149.306,177.417,149.05,177.973,149.05,178.673z"/>
	</g>
	<g>
		<path fill="#FFFFFF" d="M144.822,227.619c0,1.17-0.615,1.752-1.333,1.752c-0.692,0-1.291-0.556-1.299-1.676
			c0-1.11,0.607-1.734,1.341-1.734C144.309,225.961,144.822,226.56,144.822,227.619z M142.788,227.67
			c-0.017,0.709,0.248,1.248,0.718,1.248c0.496,0,0.718-0.53,0.718-1.265c0-0.675-0.196-1.239-0.718-1.239
			C143.036,226.414,142.788,226.97,142.788,227.67z M143.438,231.703l3.264-5.742h0.479l-3.264,5.742H143.438z M148.437,229.918
			c0,1.17-0.615,1.751-1.325,1.751c-0.692,0-1.291-0.556-1.299-1.666c0-1.119,0.607-1.743,1.341-1.743
			C147.932,228.26,148.437,228.857,148.437,229.918z M146.402,229.969c-0.008,0.709,0.265,1.248,0.727,1.248
			c0.496,0,0.718-0.53,0.718-1.266c0-0.675-0.196-1.238-0.718-1.238C146.659,228.713,146.402,229.268,146.402,229.969z"/>
	</g>
	<g>
		<path fill="#FFFFFF" d="M145.383,252.748c-0.195,0.098-0.586,0.195-1.087,0.195c-1.159,0-2.032-0.732-2.032-2.082
			c0-1.287,0.873-2.16,2.148-2.16c0.513,0,0.836,0.109,0.977,0.183l-0.128,0.434c-0.202-0.098-0.488-0.171-0.83-0.171
			c-0.965,0-1.605,0.616-1.605,1.697c0,1.007,0.58,1.653,1.581,1.653c0.323,0,0.653-0.067,0.866-0.171L145.383,252.748z"/>
		<path fill="#FFFFFF" d="M148.177,250.953h-1.599v1.483h1.782v0.445h-2.313v-4.114h2.222v0.446h-1.69v1.3h1.599V250.953z"/>
		<path fill="#FFFFFF" d="M146.884,260.07c-0.195,0.098-0.586,0.195-1.087,0.195c-1.159,0-2.032-0.732-2.032-2.082
			c0-1.287,0.873-2.16,2.148-2.16c0.513,0,0.836,0.109,0.977,0.183l-0.128,0.434c-0.202-0.098-0.488-0.171-0.83-0.171
			c-0.965,0-1.605,0.616-1.605,1.697c0,1.007,0.58,1.653,1.581,1.653c0.323,0,0.653-0.067,0.866-0.171L146.884,260.07z"/>
	</g>
	<g>
		<path fill="#FFFFFF" d="M196.689,255.527c0-0.316,0.214-0.538,0.513-0.538s0.504,0.222,0.504,0.538
			c0,0.308-0.196,0.538-0.513,0.538C196.895,256.065,196.689,255.835,196.689,255.527z"/>
	</g>
	<g>
		<path d="M220.462,254.379v-0.513h4.409v0.513H220.462z M220.462,256.054v-0.513h4.409v0.513H220.462z"/>
	</g>
	<g>
		<path fill="#FFFFFF" d="M248.724,252.713v2.008h1.931v0.513h-1.931v2.025h-0.547v-2.025h-1.931v-0.513h1.931v-2.008H248.724z"/>
	</g>
	<g>
	</g>
	<g>
		<path fill="#FFFFFF" d="M172.983,254.422c0,1.889-0.701,2.931-1.932,2.931c-1.085,0-1.82-1.017-1.837-2.854
			c0-1.863,0.803-2.889,1.931-2.889C172.316,251.61,172.983,252.653,172.983,254.422z M169.967,254.508
			c0,1.443,0.444,2.264,1.128,2.264c0.769,0,1.137-0.896,1.137-2.315c0-1.367-0.351-2.265-1.128-2.265
			C170.445,252.191,169.967,252.995,169.967,254.508z"/>
	</g>
	<g>
		<path fill="#848484" d="M175.86,67.151l-1.831-0.915c0-0.127,0.045-0.234,0.134-0.324c0.088-0.089,0.196-0.134,0.323-0.134h4.576
			c0.126,0,0.234,0.045,0.324,0.136c0.089,0.089,0.134,0.195,0.134,0.322l-1.831,0.915H175.86z M174.03,70.354v-3.661l1.373,0.687
			v2.518l-0.916,0.915L174.03,70.354z M174.487,76.304c-0.127,0-0.236-0.045-0.325-0.134c-0.088-0.089-0.132-0.196-0.132-0.324
			v-1.372h1.373v0.457h2.517l0.687,1.373H174.487z M175.403,71.728l-0.687-0.687l0.687-0.687h2.746l0.687,0.687l-0.687,0.687
			H175.403z M178.148,74.474v-2.288l0.915-0.916l0.458,0.458v4.118c0,0.128-0.045,0.236-0.136,0.326
			c-0.088,0.088-0.195,0.132-0.322,0.132L178.148,74.474z"/>
		<path fill="#848484" d="M185.013,67.151l-1.831-0.915c0-0.127,0.045-0.234,0.134-0.324c0.088-0.089,0.196-0.134,0.323-0.134h4.576
			c0.126,0,0.234,0.045,0.324,0.136c0.089,0.089,0.134,0.195,0.134,0.322l-1.831,0.915H185.013z M183.64,76.304
			c-0.127,0-0.236-0.045-0.325-0.134c-0.088-0.089-0.132-0.196-0.132-0.324v-1.372h1.373v0.457h2.517l0.687,1.373H183.64z
			 M184.555,71.728l-0.687-0.687l0.687-0.687h2.746l0.687,0.687l-0.687,0.687H184.555z M187.301,69.897V67.38l1.373-0.687v3.661
			l-0.458,0.458L187.301,69.897z M187.301,74.474v-2.288l0.915-0.916l0.458,0.458v4.118c0,0.128-0.045,0.236-0.136,0.326
			c-0.088,0.088-0.195,0.132-0.322,0.132L187.301,74.474z"/>
		<path fill="#848484" d="M196.453,69.897V67.38l1.373-0.687v3.661l-0.458,0.458L196.453,69.897z M196.453,74.474v-2.288
			l0.915-0.916l0.458,0.458v4.118c0,0.128-0.045,0.236-0.136,0.326c-0.088,0.088-0.195,0.132-0.322,0.132L196.453,74.474z"/>
		<path fill="#848484" d="M203.318,67.151l-1.831-0.915c0-0.127,0.045-0.234,0.134-0.324c0.088-0.089,0.196-0.134,0.323-0.134h4.576
			c0.126,0,0.234,0.045,0.324,0.136c0.089,0.089,0.134,0.195,0.134,0.322l-1.831,0.915H203.318z M201.487,70.354v-3.661l1.373,0.687
			v2.518l-0.916,0.915L201.487,70.354z M201.487,74.016v-2.288l0.458-0.458l0.916,0.916v1.83H201.487z M201.945,76.304
			c-0.127,0-0.236-0.045-0.325-0.134c-0.088-0.089-0.132-0.196-0.132-0.324v-1.372h1.373v0.457h2.517l0.687,1.373H201.945z
			 M202.86,71.728l-0.687-0.687l0.687-0.687h2.746l0.687,0.687l-0.687,0.687H202.86z M205.606,69.897V67.38l1.373-0.687v3.661
			l-0.458,0.458L205.606,69.897z M205.606,74.474v-2.288l0.915-0.916l0.458,0.458v4.118c0,0.128-0.045,0.236-0.136,0.326
			c-0.088,0.088-0.195,0.132-0.322,0.132L205.606,74.474z"/>
		<path fill="#848484" d="M212.47,67.151l-1.831-0.915c0-0.127,0.045-0.234,0.134-0.324c0.088-0.089,0.196-0.134,0.323-0.134h4.576
			c0.126,0,0.234,0.045,0.324,0.136c0.089,0.089,0.134,0.195,0.134,0.322l-1.831,0.915H212.47z M210.64,70.354v-3.661l1.373,0.687
			v2.518l-0.916,0.915L210.64,70.354z M210.64,74.016v-2.288l0.458-0.458l0.916,0.916v1.83H210.64z M211.097,76.304
			c-0.127,0-0.236-0.045-0.325-0.134c-0.088-0.089-0.132-0.196-0.132-0.324v-1.372h1.373v0.457h2.517l0.687,1.373H211.097z
			 M214.758,69.897V67.38l1.373-0.687v3.661l-0.458,0.458L214.758,69.897z M214.758,74.474v-2.288l0.915-0.916l0.458,0.458v4.118
			c0,0.128-0.045,0.236-0.136,0.326c-0.088,0.088-0.195,0.132-0.322,0.132L214.758,74.474z"/>
		<path fill="#848484" d="M221.623,67.151l-1.831-0.915c0-0.127,0.045-0.234,0.134-0.324c0.088-0.089,0.196-0.134,0.323-0.134h4.576
			c0.126,0,0.234,0.045,0.324,0.136c0.089,0.089,0.134,0.195,0.134,0.322l-1.831,0.915H221.623z M219.792,70.354v-3.661l1.373,0.687
			v2.518l-0.916,0.915L219.792,70.354z M219.792,74.016v-2.288l0.458-0.458l0.916,0.916v1.83H219.792z M220.25,76.304
			c-0.127,0-0.236-0.045-0.325-0.134c-0.088-0.089-0.132-0.196-0.132-0.324v-1.372h1.373v0.457h2.517l0.687,1.373H220.25z
			 M223.911,69.897V67.38l1.373-0.687v3.661l-0.458,0.458L223.911,69.897z M223.911,74.474v-2.288l0.915-0.916l0.458,0.458v4.118
			c0,0.128-0.045,0.236-0.136,0.326c-0.088,0.088-0.195,0.132-0.322,0.132L223.911,74.474z"/>
		<path fill="#848484" d="M230.775,67.151l-1.831-0.915c0-0.127,0.045-0.234,0.134-0.324c0.088-0.089,0.196-0.134,0.323-0.134h4.576
			c0.126,0,0.234,0.045,0.324,0.136c0.089,0.089,0.134,0.195,0.134,0.322l-1.831,0.915H230.775z M228.944,70.354v-3.661l1.373,0.687
			v2.518l-0.916,0.915L228.944,70.354z M228.944,74.016v-2.288l0.458-0.458l0.916,0.916v1.83H228.944z M229.402,76.304
			c-0.127,0-0.236-0.045-0.325-0.134c-0.088-0.089-0.132-0.196-0.132-0.324v-1.372h1.373v0.457h2.517l0.687,1.373H229.402z
			 M230.317,71.728l-0.687-0.687l0.687-0.687h2.746l0.687,0.687l-0.687,0.687H230.317z M233.063,69.897V67.38l1.373-0.687v3.661
			l-0.458,0.458L233.063,69.897z M233.063,74.474v-2.288l0.915-0.916l0.458,0.458v4.118c0,0.128-0.045,0.236-0.136,0.326
			c-0.088,0.088-0.195,0.132-0.322,0.132L233.063,74.474z"/>
		<path fill="#848484" d="M235.352,76.304v-1.373h1.373v1.373H235.352z"/>
	</g>
	<g>
		<path fill="#FFFFFF" d="M249.506,229.021v0.556h-2.111v-0.556H249.506z"/>
	</g>
	<g>
		<path fill="#FFFFFF" d="M245.673,147.343v2.008h1.931v0.513h-1.931v2.025h-0.547v-2.025h-1.931v-0.513h1.931v-2.008H245.673z"/>
	</g>
	<g>
		<path fill="#FFFFFF" d="M252.37,154.515v0.556h-2.111v-0.556H252.37z"/>
	</g>
	<line fill="none" stroke="#FFFFFF" stroke-miterlimit="10" x1="251.67" y1="148.838" x2="245.024" y2="155.486"/>
	<g>
		<path fill="#FFFFFF" d="M146.158,206.772h-0.547l-1.359-3.657l-0.641,0.273l-0.162-0.401l1.179-0.495l1.051,2.956
			c0.068,0.18,0.128,0.385,0.162,0.547h0.017c0.026-0.146,0.068-0.367,0.111-0.556l1.59-6.545h0.563L146.158,206.772z"/>
	</g>
</g>
<g>
</g>
<g>
</g>
<g>
</g>
<g>
</g>
<g>
</g>
<g>
</g>
</svg>
