<?xml version="1.0" encoding="utf-8"?>
<!-- Generator: Adobe Illustrator 16.0.0, SVG Export Plug-In . SVG Version: 6.00 Build 0)  -->
<!DOCTYPE svg PUBLIC "-//W3C//DTD SVG 1.1//EN" "http://www.w3.org/Graphics/SVG/1.1/DTD/svg11.dtd">
<svg version="1.1" id="Layer_1" xmlns="http://www.w3.org/2000/svg" xmlns:xlink="http://www.w3.org/1999/xlink" x="0px" y="0px"
	 width="35px" height="35px" viewBox="0 0 35 35" enable-background="new 0 0 35 35" xml:space="preserve">
<path fill="none" stroke="#FFFFFF" stroke-width="2.5" stroke-miterlimit="10" d="M27.143,17.086c-0.295,0-0.58,0.042-0.854,0.115
	c0.103-0.412,0.158-0.844,0.158-1.287c0-2.834-2.213-5.131-4.941-5.131c-2.268,0-4.179,1.589-4.758,3.754
	c-0.771-0.751-1.807-1.211-2.946-1.211c-2.127,0-3.893,1.6-4.246,3.704c-0.458-0.218-0.966-0.343-1.503-0.343
	c-2.002,0-3.625,1.687-3.625,3.766c0,2.078,1.623,3.764,3.625,3.764c0.114,0,0.227-0.007,0.339-0.018h18.565v-0.002
	c0.062,0.003,0.123,0.01,0.186,0.01c1.895,0,3.43-1.595,3.43-3.561C30.572,18.68,29.037,17.086,27.143,17.086z"/>
<g>
</g>
<g>
</g>
<g>
</g>
<g>
</g>
<g>
</g>
<g>
</g>
</svg>
