<?xml version="1.0" encoding="utf-8"?>
<!-- Generator: Adobe Illustrator 16.0.0, SVG Export Plug-In . SVG Version: 6.00 Build 0)  -->
<!DOCTYPE svg PUBLIC "-//W3C//DTD SVG 1.1//EN" "http://www.w3.org/Graphics/SVG/1.1/DTD/svg11.dtd">
<svg version="1.1" id="Layer_1" xmlns="http://www.w3.org/2000/svg" xmlns:xlink="http://www.w3.org/1999/xlink" x="0px" y="0px"
	 width="35px" height="35px" viewBox="0 0 35 35" enable-background="new 0 0 35 35" xml:space="preserve">
<g>
	<path fill="#FFFFFF" d="M10.505,17.624c0.361,0.411,0.606,0.81,0.736,1.193c0.13,0.387,0.195,1.011,0.195,1.871v4.896
		c0,0.41,0.077,0.704,0.233,0.88c0.155,0.175,0.443,0.279,0.863,0.315c0.421,0.035,0.766,0.197,1.037,0.487
		c0.271,0.291,0.405,0.646,0.405,1.066c0,0.441-0.152,0.812-0.458,1.111c-0.305,0.301-0.693,0.452-1.164,0.452
		c-0.671,0-1.317-0.18-1.938-0.533c-0.621-0.356-1.162-0.934-1.622-1.736c-0.291-0.521-0.436-1.126-0.436-1.817v-5.423
		c0-0.43-0.07-0.726-0.21-0.886c-0.141-0.159-0.441-0.269-0.902-0.323c-0.46-0.055-0.813-0.219-1.059-0.487
		c-0.246-0.272-0.368-0.626-0.368-1.067c0-0.449,0.123-0.812,0.368-1.081c0.246-0.272,0.601-0.434,1.066-0.489
		c0.466-0.055,0.749-0.147,0.849-0.277c0.17-0.201,0.255-0.51,0.255-0.932V9.708c0-1.101,0.4-2.055,1.202-2.861
		c0.801-0.806,1.727-1.209,2.779-1.209c0.481,0,0.874,0.15,1.179,0.45c0.306,0.301,0.458,0.671,0.458,1.112
		c0,0.41-0.135,0.761-0.405,1.051c-0.271,0.291-0.621,0.456-1.051,0.496c-0.431,0.04-0.701,0.13-0.811,0.27
		c-0.18,0.211-0.271,0.521-0.271,0.932v4.897c0,0.691-0.067,1.226-0.203,1.601S10.855,17.214,10.505,17.624z"/>
	<path fill="#FFFFFF" d="M27.645,17.624c-0.351-0.41-0.593-0.809-0.729-1.194c-0.134-0.385-0.202-0.915-0.202-1.585V9.948
		c0-0.41-0.078-0.704-0.233-0.878s-0.443-0.283-0.863-0.323c-0.421-0.04-0.767-0.206-1.037-0.496
		c-0.271-0.29-0.406-0.641-0.406-1.051c0-0.441,0.153-0.812,0.46-1.112c0.305-0.3,0.692-0.45,1.163-0.45
		c0.671,0,1.316,0.178,1.938,0.533c0.62,0.355,1.161,0.934,1.623,1.735c0.289,0.521,0.435,1.121,0.435,1.802v5.137
		c0,0.431,0.07,0.729,0.21,0.895c0.141,0.163,0.44,0.272,0.901,0.322c0.461,0.051,0.813,0.209,1.059,0.481
		c0.246,0.269,0.368,0.632,0.368,1.081c0,0.441-0.122,0.795-0.368,1.067c-0.245,0.269-0.601,0.433-1.066,0.487
		c-0.465,0.055-0.749,0.147-0.849,0.277c-0.171,0.201-0.255,0.511-0.255,0.932v5.423c0,1.111-0.401,2.07-1.201,2.876
		c-0.803,0.808-1.729,1.211-2.78,1.211c-0.48,0-0.873-0.151-1.178-0.452c-0.307-0.3-0.46-0.67-0.46-1.111
		c0-0.41,0.136-0.761,0.406-1.051c0.271-0.292,0.621-0.455,1.052-0.496c0.43-0.041,0.701-0.13,0.812-0.271
		c0.181-0.21,0.271-0.521,0.271-0.932v-4.896c0-0.86,0.062-1.481,0.188-1.863C27.026,18.446,27.273,18.044,27.645,17.624z"/>
</g>
<g>
</g>
<g>
</g>
<g>
</g>
<g>
</g>
<g>
</g>
<g>
</g>
</svg>
