<?xml version="1.0" encoding="utf-8"?>
<!-- Generator: Adobe Illustrator 16.0.0, SVG Export Plug-In . SVG Version: 6.00 Build 0)  -->
<!DOCTYPE svg PUBLIC "-//W3C//DTD SVG 1.1//EN" "http://www.w3.org/Graphics/SVG/1.1/DTD/svg11.dtd">
<svg version="1.1" id="Layer_1" xmlns="http://www.w3.org/2000/svg" xmlns:xlink="http://www.w3.org/1999/xlink" x="0px" y="0px"
	 width="425px" height="190.77px" viewBox="0 0 425 190.77" enable-background="new 0 0 425 190.77" xml:space="preserve">
<polyline fill="#D6D6D6" points="264.044,162.766 270.304,182.798 281.572,187.806 245.263,187.806 245.538,187.806 
	209.228,187.806 220.496,182.798 226.756,162.766 "/>
<path fill="#323232" d="M375.612,159.009c0,2.075-1.682,3.757-3.756,3.757H116.44c-2.074,0-3.757-1.682-3.757-3.757V3.756
	c0-2.074,1.683-3.756,3.757-3.756h255.417c2.074,0,3.756,1.682,3.756,3.756V159.009z"/>
<rect x="125.204" y="12.521" fill="#EEEEEE" width="237.888" height="137.726"/>
<circle cx="244.148" cy="6.26" r="1.252"/>
<rect x="209.228" y="187.806" fill="#AEADAE" width="72.345" height="2.964"/>
<rect x="125.204" y="12.521" fill="#888888" width="237.888" height="3.756"/>
<polyline fill="#888888" points="246.652,141.48 188.432,141.48 182.172,150.246 306.124,150.246 299.864,141.48 241.644,141.48 "/>
<path fill="#333333" d="M104.739,183.586c0,3.969-3.215,7.184-7.182,7.184H7.182c-3.966,0-7.182-3.215-7.182-7.184V66.279
	c0-3.967,3.216-7.182,7.182-7.182h90.375c3.967,0,7.182,3.215,7.182,7.182V183.586z"/>
<rect x="10.175" y="69.72" fill="#EEEEEE" width="84.391" height="110.425"/>
<circle cx="52.37" cy="185.187" r="3.142"/>
<circle cx="52.37" cy="64.483" r="0.898"/>
<path fill="none" stroke="#FFFFFF" stroke-miterlimit="10" d="M53.268,185.785c0,0.165-0.134,0.299-0.299,0.299h-1.197
	c-0.166,0-0.299-0.134-0.299-0.299v-1.197c0-0.164,0.134-0.299,0.299-0.299h1.197c0.165,0,0.299,0.135,0.299,0.299V185.785z"/>
<g>
	<path fill="#888888" d="M29.477,84.535c0,0.99-0.804,1.792-1.795,1.792h-5.985c-0.992,0-1.796-0.802-1.796-1.792v-5.986
		c0-0.992,0.804-1.797,1.796-1.797h5.985c0.991,0,1.795,0.805,1.795,1.797V84.535z"/>
	<path fill="#888888" d="M84.839,84.535c0,0.99-0.804,1.792-1.795,1.792h-5.985c-0.992,0-1.796-0.802-1.796-1.792v-5.986
		c0-0.992,0.805-1.797,1.796-1.797h5.985c0.991,0,1.795,0.805,1.795,1.797V84.535z"/>
	<path fill="#888888" d="M66.385,84.535c0,0.99-0.804,1.792-1.795,1.792h-5.985c-0.992,0-1.795-0.802-1.795-1.792v-5.986
		c0-0.992,0.804-1.797,1.795-1.797h5.985c0.991,0,1.795,0.805,1.795,1.797V84.535z"/>
	<path fill="#888888" d="M47.932,84.535c0,0.99-0.805,1.792-1.796,1.792H40.15c-0.992,0-1.795-0.802-1.795-1.792v-5.986
		c0-0.992,0.803-1.797,1.795-1.797h5.985c0.992,0,1.796,0.805,1.796,1.797V84.535z"/>
</g>
<g>
	<path fill="#888888" d="M29.776,124.434c0,0.992-0.804,1.797-1.795,1.797h-5.985c-0.992,0-1.796-0.805-1.796-1.797v-5.984
		c0-0.992,0.804-1.794,1.796-1.794h5.985c0.991,0,1.795,0.802,1.795,1.794V124.434z"/>
	<path fill="#888888" d="M85.139,124.434c0,0.992-0.804,1.797-1.795,1.797h-5.985c-0.992,0-1.795-0.805-1.795-1.797v-5.984
		c0-0.992,0.804-1.794,1.795-1.794h5.985c0.991,0,1.795,0.802,1.795,1.794V124.434z"/>
	<path fill="#888888" d="M66.685,124.434c0,0.992-0.804,1.797-1.796,1.797h-5.985c-0.991,0-1.795-0.805-1.795-1.797v-5.984
		c0-0.992,0.804-1.794,1.795-1.794h5.985c0.992,0,1.796,0.802,1.796,1.794V124.434z"/>
	<path fill="#888888" d="M48.23,124.434c0,0.992-0.804,1.797-1.795,1.797H40.45c-0.992,0-1.796-0.805-1.796-1.797v-5.984
		c0-0.992,0.804-1.794,1.796-1.794h5.985c0.992,0,1.795,0.802,1.795,1.794V124.434z"/>
</g>
<g>
	<path fill="#888888" d="M29.477,104.484c0,0.99-0.804,1.795-1.795,1.795h-5.985c-0.992,0-1.796-0.805-1.796-1.795v-5.986
		c0-0.991,0.804-1.794,1.796-1.794h5.985c0.991,0,1.795,0.803,1.795,1.794V104.484z"/>
	<path fill="#888888" d="M84.839,104.484c0,0.99-0.804,1.795-1.795,1.795h-5.985c-0.992,0-1.796-0.805-1.796-1.795v-5.986
		c0-0.991,0.805-1.794,1.796-1.794h5.985c0.991,0,1.795,0.803,1.795,1.794V104.484z"/>
	<path fill="#888888" d="M66.385,104.484c0,0.99-0.804,1.795-1.795,1.795h-5.985c-0.992,0-1.795-0.805-1.795-1.795v-5.986
		c0-0.991,0.804-1.794,1.795-1.794h5.985c0.991,0,1.795,0.803,1.795,1.794V104.484z"/>
	<path fill="#888888" d="M47.932,104.484c0,0.99-0.805,1.795-1.796,1.795H40.15c-0.992,0-1.795-0.805-1.795-1.795v-5.986
		c0-0.991,0.803-1.794,1.795-1.794h5.985c0.992,0,1.796,0.803,1.796,1.794V104.484z"/>
</g>
<path fill="#888888" d="M29.477,144.385c0,0.992-0.804,1.796-1.795,1.796h-5.985c-0.992,0-1.796-0.804-1.796-1.796v-5.985
	c0-0.991,0.804-1.794,1.796-1.794h5.985c0.991,0,1.795,0.803,1.795,1.794V144.385z"/>
<path fill="#888888" d="M47.932,144.385c0,0.992-0.805,1.796-1.796,1.796H40.15c-0.992,0-1.795-0.804-1.795-1.796v-5.985
	c0-0.991,0.803-1.794,1.795-1.794h5.985c0.992,0,1.796,0.803,1.796,1.794V144.385z"/>
<polyline fill="#888888" points="53.812,175.1 20.291,175.1 16.687,180.146 88.053,180.146 84.448,175.1 50.928,175.1 "/>
<path fill="#333333" d="M425,186.53c0,2.341-1.16,4.239-2.593,4.239h-32.629c-1.432,0-2.593-1.898-2.593-4.239v-69.227
	c0-2.341,1.161-4.238,2.593-4.238h32.629c1.433,0,2.593,1.897,2.593,4.238V186.53z"/>
<rect x="389.664" y="122.729" fill="#EEEEEE" width="32.858" height="58.378"/>
<circle cx="406.093" cy="185.723" r="3.449"/>
<path fill="none" stroke="#FFFFFF" stroke-miterlimit="10" d="M407.079,186.38c0,0.182-0.147,0.328-0.329,0.328h-1.315
	c-0.182,0-0.329-0.146-0.329-0.328v-1.314c0-0.182,0.146-0.329,0.329-0.329h1.315c0.181,0,0.329,0.147,0.329,0.329V186.38z"/>
<g>
	<path fill="#888888" d="M397.55,130.469c0,0.556-0.451,1.008-1.008,1.008h-3.359c-0.556,0-1.007-0.452-1.007-1.008v-3.359
		c0-0.556,0.451-1.007,1.007-1.007h3.359c0.557,0,1.008,0.451,1.008,1.007V130.469z"/>
	<path fill="#888888" d="M412.523,130.469c0,0.556-0.451,1.008-1.008,1.008h-3.359c-0.557,0-1.008-0.452-1.008-1.008v-3.359
		c0-0.556,0.451-1.007,1.008-1.007h3.359c0.557,0,1.008,0.451,1.008,1.007V130.469z"/>
	<path fill="#888888" d="M405.036,130.469c0,0.556-0.451,1.008-1.008,1.008h-3.358c-0.557,0-1.008-0.452-1.008-1.008v-3.359
		c0-0.556,0.452-1.007,1.008-1.007h3.358c0.557,0,1.008,0.451,1.008,1.007V130.469z"/>
	<path fill="#888888" d="M420.009,130.469c0,0.556-0.45,1.008-1.007,1.008h-3.359c-0.556,0-1.007-0.452-1.007-1.008v-3.359
		c0-0.556,0.451-1.007,1.007-1.007h3.359c0.557,0,1.007,0.451,1.007,1.007V130.469z"/>
</g>
<g>
	<path fill="#888888" d="M397.55,138.405c0,0.556-0.451,1.007-1.008,1.007h-3.359c-0.556,0-1.007-0.451-1.007-1.007v-3.359
		c0-0.557,0.451-1.008,1.007-1.008h3.359c0.557,0,1.008,0.451,1.008,1.008V138.405z"/>
	<path fill="#888888" d="M412.523,138.405c0,0.556-0.451,1.007-1.008,1.007h-3.359c-0.557,0-1.008-0.451-1.008-1.007v-3.359
		c0-0.557,0.451-1.008,1.008-1.008h3.359c0.557,0,1.008,0.451,1.008,1.008V138.405z"/>
	<path fill="#888888" d="M405.036,138.405c0,0.556-0.451,1.007-1.008,1.007h-3.358c-0.557,0-1.008-0.451-1.008-1.007v-3.359
		c0-0.557,0.452-1.008,1.008-1.008h3.358c0.557,0,1.008,0.451,1.008,1.008V138.405z"/>
	<path fill="#888888" d="M420.009,138.405c0,0.556-0.45,1.007-1.007,1.007h-3.359c-0.556,0-1.007-0.451-1.007-1.007v-3.359
		c0-0.557,0.451-1.008,1.007-1.008h3.359c0.557,0,1.007,0.451,1.007,1.008V138.405z"/>
</g>
<path fill="#888888" d="M397.55,146.34c0,0.558-0.451,1.008-1.008,1.008h-3.359c-0.556,0-1.007-0.45-1.007-1.008v-3.358
	c0-0.557,0.451-1.009,1.007-1.009h3.359c0.557,0,1.008,0.452,1.008,1.009V146.34z"/>
<polyline fill="#888888" points="406.589,179.368 395.052,179.368 393.812,181.106 418.373,181.106 417.132,179.368 
	405.597,179.368 "/>
<g>
</g>
<g>
</g>
<g>
</g>
<g>
</g>
<g>
</g>
<g>
</g>
</svg>
