<?xml version="1.0" encoding="utf-8"?>
<!-- Generator: Adobe Illustrator 16.0.0, SVG Export Plug-In . SVG Version: 6.00 Build 0)  -->
<!DOCTYPE svg PUBLIC "-//W3C//DTD SVG 1.1//EN" "http://www.w3.org/Graphics/SVG/1.1/DTD/svg11.dtd">
<svg version="1.1" id="Layer_1" xmlns="http://www.w3.org/2000/svg" xmlns:xlink="http://www.w3.org/1999/xlink" x="0px" y="0px"
	 width="450.021px" height="202px" viewBox="0 0 450.021 202" enable-background="new 0 0 450.021 202" xml:space="preserve">
<path fill="#323232" d="M397.725,168.37c0,2.196-1.78,3.978-3.977,3.978H123.295c-2.197,0-3.978-1.781-3.978-3.978V3.977
	c0-2.196,1.781-3.977,3.978-3.977h270.453c2.197,0,3.977,1.781,3.977,3.977V168.37z"/>
<rect x="132.575" y="13.257" fill="#EEEEEE" width="251.892" height="145.833"/>
<circle cx="258.521" cy="6.629" r="1.326"/>
<polyline fill="#EDEDED" points="279.588,172.348 286.217,193.56 298.148,198.862 259.702,198.862 259.992,198.862 221.545,198.862 
	233.477,193.56 240.105,172.348 "/>
<rect x="221.545" y="198.862" fill="#D8D8D8" width="76.604" height="3.138"/>
<rect x="132.575" y="13.257" fill="#888888" width="251.892" height="3.978"/>
<polyline fill="#888888" points="261.172,149.81 199.525,149.81 192.896,159.091 324.146,159.091 317.517,149.81 255.87,149.81 "/>
<path fill="#333333" d="M110.906,194.395c0,4.201-3.404,7.605-7.605,7.605H7.605C3.405,202,0,198.596,0,194.395V70.181
	c0-4.201,3.405-7.605,7.605-7.605h95.696c4.201,0,7.605,3.405,7.605,7.605V194.395z"/>
<rect x="10.774" y="73.825" fill="#EEEEEE" width="89.359" height="116.926"/>
<circle cx="55.453" cy="196.088" r="3.327"/>
<circle cx="55.453" cy="68.28" r="0.951"/>
<path fill="none" stroke="#FFFFFF" stroke-miterlimit="10" d="M56.403,196.722c0,0.176-0.142,0.317-0.316,0.317h-1.268
	c-0.175,0-0.317-0.142-0.317-0.317v-1.267c0-0.174,0.142-0.317,0.317-0.317h1.268c0.175,0,0.316,0.144,0.316,0.317V196.722z"/>
<g>
	<path fill="#888888" d="M31.212,89.512c0,1.048-0.851,1.898-1.901,1.898h-6.337c-1.05,0-1.901-0.85-1.901-1.898v-6.338
		c0-1.05,0.851-1.902,1.901-1.902h6.337c1.05,0,1.901,0.852,1.901,1.902V89.512z"/>
	<path fill="#888888" d="M89.833,89.512c0,1.048-0.851,1.898-1.901,1.898h-6.337c-1.05,0-1.901-0.85-1.901-1.898v-6.338
		c0-1.05,0.852-1.902,1.901-1.902h6.337c1.05,0,1.901,0.852,1.901,1.902V89.512z"/>
	<path fill="#888888" d="M70.293,89.512c0,1.048-0.852,1.898-1.901,1.898h-6.337c-1.05,0-1.901-0.85-1.901-1.898v-6.338
		c0-1.05,0.851-1.902,1.901-1.902h6.337c1.05,0,1.901,0.852,1.901,1.902V89.512z"/>
	<path fill="#888888" d="M50.753,89.512c0,1.048-0.852,1.898-1.901,1.898h-6.338c-1.05,0-1.901-0.85-1.901-1.898v-6.338
		c0-1.05,0.851-1.902,1.901-1.902h6.338c1.05,0,1.901,0.852,1.901,1.902V89.512z"/>
</g>
<g>
	<path fill="#888888" d="M31.529,131.76c0,1.05-0.852,1.902-1.901,1.902h-6.337c-1.05,0-1.901-0.853-1.901-1.902v-6.337
		c0-1.051,0.851-1.9,1.901-1.9h6.337c1.05,0,1.901,0.85,1.901,1.9V131.76z"/>
	<path fill="#888888" d="M90.151,131.76c0,1.05-0.852,1.902-1.901,1.902h-6.337c-1.05,0-1.901-0.853-1.901-1.902v-6.337
		c0-1.051,0.851-1.9,1.901-1.9h6.337c1.05,0,1.901,0.85,1.901,1.9V131.76z"/>
	<path fill="#888888" d="M70.61,131.76c0,1.05-0.852,1.902-1.901,1.902h-6.338c-1.049,0-1.901-0.853-1.901-1.902v-6.337
		c0-1.051,0.852-1.9,1.901-1.9h6.338c1.05,0,1.901,0.85,1.901,1.9V131.76z"/>
	<path fill="#888888" d="M51.069,131.76c0,1.05-0.851,1.902-1.901,1.902h-6.337c-1.05,0-1.901-0.853-1.901-1.902v-6.337
		c0-1.051,0.851-1.9,1.901-1.9h6.337c1.05,0,1.901,0.85,1.901,1.9V131.76z"/>
</g>
<g>
	<path fill="#888888" d="M31.212,110.636c0,1.049-0.851,1.9-1.901,1.9h-6.337c-1.05,0-1.901-0.852-1.901-1.9v-6.339
		c0-1.05,0.851-1.9,1.901-1.9h6.337c1.05,0,1.901,0.851,1.901,1.9V110.636z"/>
	<path fill="#888888" d="M89.833,110.636c0,1.049-0.851,1.9-1.901,1.9h-6.337c-1.05,0-1.901-0.852-1.901-1.9v-6.339
		c0-1.05,0.852-1.9,1.901-1.9h6.337c1.05,0,1.901,0.851,1.901,1.9V110.636z"/>
	<path fill="#888888" d="M70.293,110.636c0,1.049-0.852,1.9-1.901,1.9h-6.337c-1.05,0-1.901-0.852-1.901-1.9v-6.339
		c0-1.05,0.851-1.9,1.901-1.9h6.337c1.05,0,1.901,0.851,1.901,1.9V110.636z"/>
	<path fill="#888888" d="M50.753,110.636c0,1.049-0.852,1.9-1.901,1.9h-6.338c-1.05,0-1.901-0.852-1.901-1.9v-6.339
		c0-1.05,0.851-1.9,1.901-1.9h6.338c1.05,0,1.901,0.851,1.901,1.9V110.636z"/>
</g>
<path fill="#888888" d="M31.212,152.885c0,1.051-0.851,1.901-1.901,1.901h-6.337c-1.05,0-1.901-0.851-1.901-1.901v-6.338
	c0-1.049,0.851-1.9,1.901-1.9h6.337c1.05,0,1.901,0.852,1.901,1.9V152.885z"/>
<path fill="#888888" d="M50.753,152.885c0,1.051-0.852,1.901-1.901,1.901h-6.338c-1.05,0-1.901-0.851-1.901-1.901v-6.338
	c0-1.049,0.851-1.9,1.901-1.9h6.338c1.05,0,1.901,0.852,1.901,1.9V152.885z"/>
<polyline fill="#888888" points="56.979,185.407 21.485,185.407 17.669,190.751 93.237,190.751 89.42,185.407 53.926,185.407 "/>
<path fill="#333333" d="M450.021,197.512c0,2.479-1.229,4.488-2.745,4.488h-34.551c-1.517,0-2.746-2.01-2.746-4.488v-73.303
	c0-2.479,1.229-4.487,2.746-4.487h34.551c1.516,0,2.745,2.009,2.745,4.487V197.512z"/>
<rect x="412.604" y="129.954" fill="#EEEEEE" width="34.792" height="61.813"/>
<circle cx="430" cy="196.656" r="3.653"/>
<path fill="none" stroke="#FFFFFF" stroke-miterlimit="10" d="M431.044,197.353c0,0.192-0.156,0.348-0.348,0.348h-1.393
	c-0.192,0-0.348-0.155-0.348-0.348v-1.393c0-0.191,0.155-0.348,0.348-0.348h1.393c0.191,0,0.348,0.156,0.348,0.348V197.353z"/>
<g>
	<path fill="#888888" d="M420.954,138.149c0,0.589-0.478,1.067-1.067,1.067h-3.557c-0.589,0-1.066-0.479-1.066-1.067v-3.557
		c0-0.589,0.478-1.066,1.066-1.066h3.557c0.59,0,1.067,0.478,1.067,1.066V138.149z"/>
	<path fill="#888888" d="M436.809,138.149c0,0.589-0.478,1.067-1.066,1.067h-3.558c-0.589,0-1.066-0.479-1.066-1.067v-3.557
		c0-0.589,0.478-1.066,1.066-1.066h3.558c0.589,0,1.066,0.478,1.066,1.066V138.149z"/>
	<path fill="#888888" d="M428.881,138.149c0,0.589-0.478,1.067-1.067,1.067h-3.556c-0.59,0-1.067-0.479-1.067-1.067v-3.557
		c0-0.589,0.478-1.066,1.067-1.066h3.556c0.59,0,1.067,0.478,1.067,1.066V138.149z"/>
	<path fill="#888888" d="M444.735,138.149c0,0.589-0.477,1.067-1.066,1.067h-3.557c-0.589,0-1.066-0.479-1.066-1.067v-3.557
		c0-0.589,0.478-1.066,1.066-1.066h3.557c0.59,0,1.066,0.478,1.066,1.066V138.149z"/>
</g>
<g>
	<path fill="#888888" d="M420.954,146.553c0,0.589-0.478,1.066-1.067,1.066h-3.557c-0.589,0-1.066-0.478-1.066-1.066v-3.557
		c0-0.589,0.478-1.067,1.066-1.067h3.557c0.59,0,1.067,0.479,1.067,1.067V146.553z"/>
	<path fill="#888888" d="M436.809,146.553c0,0.589-0.478,1.066-1.066,1.066h-3.558c-0.589,0-1.066-0.478-1.066-1.066v-3.557
		c0-0.589,0.478-1.067,1.066-1.067h3.558c0.589,0,1.066,0.479,1.066,1.067V146.553z"/>
	<path fill="#888888" d="M428.881,146.553c0,0.589-0.478,1.066-1.067,1.066h-3.556c-0.59,0-1.067-0.478-1.067-1.066v-3.557
		c0-0.589,0.478-1.067,1.067-1.067h3.556c0.59,0,1.067,0.479,1.067,1.067V146.553z"/>
	<path fill="#888888" d="M444.735,146.553c0,0.589-0.477,1.066-1.066,1.066h-3.557c-0.589,0-1.066-0.478-1.066-1.066v-3.557
		c0-0.589,0.478-1.067,1.066-1.067h3.557c0.59,0,1.066,0.479,1.066,1.067V146.553z"/>
</g>
<path fill="#888888" d="M420.954,154.955c0,0.59-0.478,1.067-1.067,1.067h-3.557c-0.589,0-1.066-0.478-1.066-1.067v-3.556
	c0-0.59,0.478-1.068,1.066-1.068h3.557c0.59,0,1.067,0.479,1.067,1.068V154.955z"/>
<polyline fill="#888888" points="430.525,189.929 418.31,189.929 416.997,191.768 443.003,191.768 441.688,189.929 429.475,189.929 
	"/>
<g>
</g>
<g>
</g>
<g>
</g>
<g>
</g>
<g>
</g>
<g>
</g>
</svg>
