<?xml version="1.0" encoding="utf-8"?>
<!-- Generator: Adobe Illustrator 16.0.0, SVG Export Plug-In . SVG Version: 6.00 Build 0)  -->
<!DOCTYPE svg PUBLIC "-//W3C//DTD SVG 1.1//EN" "http://www.w3.org/Graphics/SVG/1.1/DTD/svg11.dtd">
<svg version="1.1" id="Layer_1" xmlns="http://www.w3.org/2000/svg" xmlns:xlink="http://www.w3.org/1999/xlink" x="0px" y="0px"
	 width="50px" height="50px" viewBox="0 0 50 50" enable-background="new 0 0 50 50" xml:space="preserve">
<path fill="#222222" d="M50,44c0,3.314-2.687,6-6,6H6c-3.313,0-6-2.686-6-6V6c0-3.313,2.687-6,6-6h38c3.313,0,6,2.687,6,6V44z"/>
<path fill="#FFFFFF" d="M15.557,32.254c-4.281,0-7.751-3.467-7.751-7.748c0-4.283,3.47-7.75,7.751-7.75
	c4.28,0,7.749,3.467,7.749,7.75C23.306,28.787,19.837,32.254,15.557,32.254z M35.004,32.254c-4.281,0-7.75-3.467-7.75-7.748
	c0-4.283,3.469-7.75,7.75-7.75c4.279,0,7.75,3.467,7.75,7.75C42.754,28.787,39.283,32.254,35.004,32.254z"/>
</svg>
