<?xml version="1.0" encoding="utf-8"?>
<!-- Generator: Adobe Illustrator 16.0.0, SVG Export Plug-In . SVG Version: 6.00 Build 0)  -->
<!DOCTYPE svg PUBLIC "-//W3C//DTD SVG 1.1//EN" "http://www.w3.org/Graphics/SVG/1.1/DTD/svg11.dtd">
<svg version="1.1" id="Layer_1" xmlns="http://www.w3.org/2000/svg" xmlns:xlink="http://www.w3.org/1999/xlink" x="0px" y="0px"
	 width="51px" height="50px" viewBox="0 0 51 50" enable-background="new 0 0 51 50" xml:space="preserve">
<path fill="#FFFFFF" d="M25.5,0.376c-13.6,0-24.625,11.027-24.625,24.625c0,13.6,11.025,24.623,24.625,24.623
	s24.625-11.023,24.625-24.623C50.125,11.403,39.1,0.376,25.5,0.376z M16.057,32.63c-4.281,0-7.75-3.467-7.75-7.748
	c0-4.283,3.469-7.75,7.75-7.75s7.75,3.467,7.75,7.75C23.807,29.163,20.338,32.63,16.057,32.63z M35.504,32.63
	c-4.281,0-7.75-3.467-7.75-7.748c0-4.283,3.469-7.75,7.75-7.75c4.279,0,7.75,3.467,7.75,7.75
	C43.254,29.163,39.783,32.63,35.504,32.63z"/>
</svg>
