<?xml version="1.0" encoding="utf-8"?>
<!-- Generator: Adobe Illustrator 16.0.0, SVG Export Plug-In . SVG Version: 6.00 Build 0)  -->
<!DOCTYPE svg PUBLIC "-//W3C//DTD SVG 1.1//EN" "http://www.w3.org/Graphics/SVG/1.1/DTD/svg11.dtd">
<svg version="1.1" id="Layer_1" xmlns="http://www.w3.org/2000/svg" xmlns:xlink="http://www.w3.org/1999/xlink" x="0px" y="0px"
	 width="50px" height="50px" viewBox="0 0 50 50" enable-background="new 0 0 50 50" xml:space="preserve">
<path fill="#222222" d="M50,44c0,3.313-2.687,6-6,6H6c-3.313,0-6-2.687-6-6V6c0-3.313,2.687-6,6-6h38c3.313,0,6,2.687,6,6V44z"/>
<path fill="#FFFFFF" d="M29.254,21.66c-2.203,0-3.189,1.209-3.742,2.061v0.041h-0.027c0.01-0.012,0.02-0.027,0.027-0.041v-1.768
	h-4.148c0.054,1.17,0,12.484,0,12.484h4.148v-6.973c0-0.375,0.027-0.744,0.137-1.012c0.301-0.744,0.984-1.52,2.131-1.52
	c1.502,0,2.102,1.146,2.102,2.824v6.68h4.15v-7.158C34.031,23.443,31.984,21.66,29.254,21.66z"/>
<path fill="#FFFFFF" d="M17.019,15.932c-1.419,0-2.348,0.934-2.348,2.158c0,1.197,0.9,2.158,2.293,2.158h0.027
	c1.447,0,2.349-0.961,2.349-2.158C19.312,16.865,18.438,15.932,17.019,15.932z"/>
<rect x="14.916" y="21.953" fill="#FFFFFF" width="4.151" height="12.484"/>
</svg>
