<?xml version="1.0" encoding="utf-8"?>
<!-- Generator: Adobe Illustrator 16.0.0, SVG Export Plug-In . SVG Version: 6.00 Build 0)  -->
<!DOCTYPE svg PUBLIC "-//W3C//DTD SVG 1.1//EN" "http://www.w3.org/Graphics/SVG/1.1/DTD/svg11.dtd">
<svg version="1.1" id="Layer_1" xmlns="http://www.w3.org/2000/svg" xmlns:xlink="http://www.w3.org/1999/xlink" x="0px" y="0px"
	 width="51px" height="50px" viewBox="0 0 51 50" enable-background="new 0 0 51 50" xml:space="preserve">
<g>
	<path fill="#FFFFFF" d="M25.501,0.375C11.901,0.375,0.876,11.4,0.876,25c0,13.602,11.025,24.625,24.625,24.625
		C39.1,49.625,50.125,38.602,50.125,25C50.125,11.4,39.1,0.375,25.501,0.375z M39.215,36.961c0,1.096-0.908,1.982-2.031,1.982
		H13.769c-1.123,0-2.031-0.887-2.031-1.982V13.271c0-1.094,0.908-1.982,2.031-1.982h23.415c1.123,0,2.031,0.889,2.031,1.982V36.961z
		"/>
	<path fill="#FFFFFF" d="M30.254,21.66c-2.203,0-3.189,1.209-3.742,2.061v0.041h-0.027c0.01-0.012,0.02-0.027,0.027-0.041v-1.768
		h-4.148c0.054,1.17,0,12.484,0,12.484h4.148v-6.973c0-0.375,0.027-0.744,0.137-1.012c0.301-0.744,0.984-1.52,2.131-1.52
		c1.502,0,2.102,1.146,2.102,2.824v6.68h4.15v-7.158C35.031,23.443,32.984,21.66,30.254,21.66z"/>
	<path fill="#FFFFFF" d="M18.019,15.932c-1.419,0-2.348,0.934-2.348,2.158c0,1.197,0.9,2.158,2.293,2.158h0.027
		c1.447,0,2.349-0.961,2.349-2.158C20.312,16.865,19.438,15.932,18.019,15.932z"/>
	<rect x="15.916" y="21.953" fill="#FFFFFF" width="4.151" height="12.484"/>
</g>
</svg>
