<?xml version="1.0" encoding="utf-8"?>
<!-- Generator: Adobe Illustrator 16.0.0, SVG Export Plug-In . SVG Version: 6.00 Build 0)  -->
<!DOCTYPE svg PUBLIC "-//W3C//DTD SVG 1.1//EN" "http://www.w3.org/Graphics/SVG/1.1/DTD/svg11.dtd">
<svg version="1.1" id="Layer_1" xmlns="http://www.w3.org/2000/svg" xmlns:xlink="http://www.w3.org/1999/xlink" x="0px" y="0px"
	 width="200px" height="200px" viewBox="0 0 200 200" enable-background="new 0 0 200 200" xml:space="preserve">
<g>
	<g>
		<g>
			<circle fill="none" stroke="#FFFFFF" stroke-width="8" stroke-miterlimit="10" cx="100" cy="100" r="96"/>
		</g>
	</g>
</g>
<g>
	<g>
		<g>
			<g>
				<path fill="#FFFFFF" stroke="#FFFFFF" stroke-miterlimit="10" d="M34.868,103.723c-1.863-1.223-3.7-1.858-5.511-1.908
					c-1.812-0.05-4.544,0.262-8.197,0.932c-2.793,0.529-4.696,0.814-5.711,0.857c-1.015,0.041-1.973-0.186-2.871-0.682
					c-0.9-0.496-1.581-1.24-2.043-2.232c-0.603-1.292-0.581-2.654,0.065-4.087s1.979-2.62,3.997-3.561
					c3.328-1.552,6.603-1.344,9.826,0.622l1.201,2.576l4.514-2.104L24.914,82.93l-4.515,2.105l1.151,2.469
					c-3.423-0.73-6.611-0.408-9.568,0.971C8.867,89.928,6.71,92.06,5.51,94.871c-1.199,2.811-1.076,5.766,0.367,8.863
					c0.934,2.002,2.214,3.51,3.842,4.529c1.627,1.018,3.422,1.551,5.383,1.596c1.96,0.045,4.802-0.263,8.524-0.922
					c3.205-0.566,5.501-0.705,6.886-0.414c1.386,0.291,2.487,1.312,3.305,3.065c0.842,1.806,0.895,3.56,0.157,5.261
					c-0.736,1.701-2.017,2.977-3.839,3.826c-3.576,1.668-7.407,1.01-11.494-1.979l-1.522-3.266l-4.62,2.154l6.253,13.408l4.62-2.154
					l-1.424-3.053c3.821,1.171,7.413,0.971,10.776-0.598c3.275-1.526,5.544-3.834,6.808-6.924s1.161-6.211-0.309-9.363
					C38.183,106.672,36.731,104.945,34.868,103.723z"/>
				<polygon fill="#FFFFFF" stroke="#FFFFFF" stroke-miterlimit="10" points="54.441,108.889 44.549,87.674 35.521,91.884 
					37.613,96.371 41.597,94.514 49.396,111.241 45.414,113.099 47.507,117.586 60.517,111.52 58.424,107.031 				"/>
				<path fill="#FFFFFF" stroke="#FFFFFF" stroke-miterlimit="10" d="M36.606,83.361c0.874,0.325,1.735,0.29,2.585-0.106
					c0.832-0.388,1.41-1.019,1.736-1.893c0.324-0.874,0.289-1.735-0.107-2.585s-1.031-1.426-1.905-1.73
					c-0.874-0.303-1.728-0.261-2.56,0.127c-0.886,0.413-1.475,1.055-1.77,1.924c-0.294,0.87-0.252,1.712,0.128,2.526
					C35.102,82.458,35.732,83.036,36.606,83.361z"/>
				<path fill="#FFFFFF" stroke="#FFFFFF" stroke-miterlimit="10" d="M101.758,86.825L95.814,74.08
					c-1.023-2.194-1.983-3.768-2.879-4.719c-0.896-0.95-2.051-1.543-3.465-1.778c-1.413-0.234-2.952,0.035-4.615,0.811
					c-2.886,1.345-5.378,4.135-7.478,8.368c-2.359-2.153-5.006-2.547-7.938-1.179c-2.916,1.36-5.328,3.96-7.236,7.803l-1.51-3.239
					l-9.32,4.346l2.092,4.487l4.275-1.994l7.801,16.727l-4.594,2.143l2.092,4.487l14.152-6.599L75.1,99.256l-4.514,2.105
					L64.16,87.581c1.969-3.613,3.908-5.863,5.814-6.752c1.165-0.543,2.166-0.552,3.003-0.026c0.836,0.526,1.646,1.629,2.431,3.311
					l7.837,16.808l9.453-4.408l-2.093-4.487l-4.408,2.056l-6.426-13.78c1.712-3.493,3.647-5.742,5.808-6.749
					c0.761-0.355,1.504-0.459,2.23-0.312c0.726,0.146,1.297,0.494,1.714,1.042c0.418,0.549,0.974,1.567,1.667,3.054l7.614,16.33
					l9.532-4.445l-2.093-4.487L101.758,86.825z"/>
				<path fill="#FFFFFF" stroke="#FFFFFF" stroke-miterlimit="10" d="M123.207,54.696c-3.824-1.267-7.586-1.037-11.285,0.688
					c-3.77,1.758-6.373,4.519-7.809,8.28c-1.435,3.762-1.229,7.625,0.621,11.591c1.849,3.965,4.664,6.617,8.445,7.957
					c3.782,1.34,7.585,1.118,11.409-0.665c3.717-1.733,6.312-4.474,7.787-8.222c1.474-3.747,1.271-7.64-0.612-11.675
					C129.882,58.614,127.029,55.964,123.207,54.696z M126.967,72.432c-0.802,2.37-2.362,4.095-4.682,5.176
					c-2.283,1.064-4.596,1.156-6.936,0.273s-4.102-2.592-5.285-5.129c-1.141-2.448-1.33-4.864-0.566-7.248
					c0.763-2.384,2.33-4.129,4.703-5.235c2.266-1.057,4.574-1.141,6.928-0.254s4.117,2.591,5.292,5.11
					C127.588,67.627,127.77,70.063,126.967,72.432z"/>
				<path fill="#FFFFFF" stroke="#FFFFFF" stroke-miterlimit="10" d="M135.909,50.535l7.8,16.728l-4.514,2.104l2.093,4.487
					l13.993-6.524l-2.093-4.487l-4.435,2.067l-6.413-13.754c1.8-3.49,3.813-5.755,6.044-6.795c0.85-0.396,1.705-0.434,2.565-0.113
					c0.861,0.321,1.745,1.455,2.653,3.401l7.838,16.808l9.372-4.37l-2.093-4.487l-4.327,2.018l-5.844-12.532
					c-1.023-2.194-1.971-3.785-2.839-4.77c-0.868-0.985-2.031-1.618-3.486-1.897c-1.456-0.28-3.017-0.032-4.681,0.743
					c-2.673,1.247-5.084,3.794-7.233,7.641l-1.449-3.106l-9.559,4.457l2.093,4.487L135.909,50.535z"/>
				<polygon fill="#FFFFFF" stroke="#FFFFFF" stroke-miterlimit="10" points="166.786,107.253 172.643,119.812 161.331,125.086 
					148.418,97.393 152.957,95.275 150.803,90.656 135.695,97.701 137.85,102.32 142.629,100.092 155.543,127.785 150.764,130.014 
					152.918,134.635 180.001,122.006 171.99,104.826 				"/>
				<path fill="#FFFFFF" stroke="#FFFFFF" stroke-miterlimit="10" d="M169.338,82.466c-0.295,0.87-0.252,1.712,0.127,2.526
					c0.389,0.832,1.019,1.411,1.893,1.736c0.874,0.325,1.735,0.29,2.585-0.106c0.832-0.388,1.411-1.019,1.736-1.893
					c0.325-0.873,0.29-1.735-0.106-2.585s-1.032-1.426-1.906-1.729s-1.727-0.262-2.559,0.126
					C170.222,80.954,169.632,81.596,169.338,82.466z"/>
				<polygon fill="#FFFFFF" stroke="#FFFFFF" stroke-miterlimit="10" points="193.176,110.398 189.193,112.256 179.301,91.041 
					170.272,95.25 172.365,99.738 176.348,97.881 184.148,114.608 180.165,116.465 182.258,120.953 195.269,114.887 				"/>
			</g>
		</g>
	</g>
</g>
</svg>
