<?xml version="1.0" encoding="utf-8"?>
<!-- Generator: Adobe Illustrator 16.0.0, SVG Export Plug-In . SVG Version: 6.00 Build 0)  -->
<!DOCTYPE svg PUBLIC "-//W3C//DTD SVG 1.1//EN" "http://www.w3.org/Graphics/SVG/1.1/DTD/svg11.dtd">
<svg version="1.1" id="Layer_1" xmlns="http://www.w3.org/2000/svg" xmlns:xlink="http://www.w3.org/1999/xlink" x="0px" y="0px"
	 width="150px" height="100px" viewBox="0 0 150 100" enable-background="new 0 0 150 100" xml:space="preserve">
<path fill="#212221" d="M50,44c0,3.313-2.686,6-6,6H6c-3.313,0-6-2.687-6-6V6c0-3.313,2.687-6,6-6h38c3.314,0,6,2.687,6,6V44z"/>
<path fill="#FFFFFF" d="M38.445,25.28c-0.297,1.504-1.043,3.074-2.229,4.719c-2.568,3.141-5.686,5.215-9.361,6.225h-0.066
	c-3.786,1.02-7.583,0.932-11.381-0.264c-3.313-1.252-5.991-3.25-8.01-6.014c2.008,1.58,3.863,2.369,5.597,2.379l0.044-0.02
	c2.842,0.188,5.268-0.703,7.276-2.68c0.011-0.01,0.022-0.02,0.032-0.031l-0.064-0.076c-1.164,0.053-1.955-0.299-2.394-1.055
	c-0.121-0.506,0-0.945,0.373-1.318c0.208-0.24,0.527-0.461,0.933-0.658c-2.052,0.055-3.467-0.658-4.27-2.148
	c0.615-0.66,1.404-0.977,2.36-0.924l0.011-0.031c-2.437-0.66-3.721-1.846-3.841-3.568c0.626-0.186,1.272-0.285,1.942-0.273v-0.033
	c-1.898-1.076-2.854-2.557-2.843-4.414c1.745,0.541,3.468,1.23,5.169,2.064c1.559,0.658,2.908,1.338,4.061,2.051
	c0.978,0.551,1.789,1.23,2.47,2.043l0.033-0.033l0.175-0.129c0.473-1.791,1.263-3.547,2.393-5.291l0.021-0.057
	c0.439-0.635,1.01-1.336,1.723-2.096c0.342-0.34,0.736-0.658,1.186-0.953c0.088,0.055-0.043,0.361-0.395,0.932
	c0.943-0.801,1.844-1.205,2.678-1.229c0.186,0.186-0.143,0.549-0.988,1.064c0.67-0.254,1.416-0.418,2.229-0.516
	c0.352,0.043,0.473,0.217,0.373,0.537c-0.285,0.395-1.24,0.758-2.854,1.109c-0.01,0-0.021,0-0.031,0.01l0.055,0.121
	c1.777-0.068,3.324,0.494,4.641,1.668c0.023,0.023,0.045,0.043,0.066,0.055c1.559,1.504,2.457,3.16,2.711,4.984
	c1.383,0.492,2.775,0.482,4.193-0.047c-0.385,1.035-1.582,1.656-3.611,1.879c-0.012-0.014-0.012-0.014-0.012,0v0.197
	c1.855,0.363,3.105,0.428,3.742,0.207l0.021,0.035C41.748,24.821,40.365,25.347,38.445,25.28z"/>
<path fill="#212221" d="M100,44c0,3.314-2.686,6-6,6H56c-3.313,0-6-2.686-6-6V6c0-3.313,2.687-6,6-6h38c3.314,0,6,2.687,6,6V44z"/>
<path fill="#FFFFFF" d="M65.558,32.254c-4.281,0-7.751-3.467-7.751-7.748c0-4.283,3.47-7.75,7.751-7.75
	c4.28,0,7.749,3.467,7.749,7.75C73.307,28.787,69.838,32.254,65.558,32.254z M85.004,32.254c-4.281,0-7.75-3.467-7.75-7.748
	c0-4.283,3.469-7.75,7.75-7.75c4.279,0,7.75,3.467,7.75,7.75C92.754,28.787,89.283,32.254,85.004,32.254z"/>
<path fill="#212221" d="M150.001,44c0,3.313-2.687,6-6,6h-38c-3.313,0-6-2.687-6-6V6c0-3.313,2.687-6,6-6h38c3.313,0,6,2.687,6,6V44
	z"/>
<path fill="#FFFFFF" d="M129.255,21.66c-2.203,0-3.189,1.209-3.742,2.061v0.041h-0.027c0.01-0.012,0.02-0.027,0.027-0.041v-1.768
	h-4.148c0.054,1.17,0,12.484,0,12.484h4.148v-6.973c0-0.375,0.027-0.744,0.137-1.012c0.301-0.744,0.984-1.52,2.131-1.52
	c1.502,0,2.102,1.146,2.102,2.824v6.68h4.15v-7.158C134.032,23.443,131.985,21.66,129.255,21.66z"/>
<path fill="#FFFFFF" d="M117.02,15.932c-1.419,0-2.348,0.934-2.348,2.158c0,1.197,0.9,2.158,2.293,2.158h0.027
	c1.447,0,2.349-0.961,2.349-2.158C119.313,16.865,118.439,15.932,117.02,15.932z"/>
<rect x="114.917" y="21.953" fill="#FFFFFF" width="4.151" height="12.484"/>
<path fill="#212221" d="M50,94c0,3.312-2.686,6-6,6H6c-3.313,0-6-2.688-6-6V56c0-3.314,2.687-6,6-6h38c3.314,0,6,2.686,6,6V94z"/>
<path fill="#00ACEE" d="M38.445,75.279c-0.297,1.504-1.043,3.074-2.229,4.719c-2.568,3.141-5.686,5.215-9.361,6.225h-0.066
	c-3.786,1.02-7.583,0.932-11.381-0.264c-3.313-1.252-5.991-3.25-8.01-6.014c2.008,1.58,3.863,2.369,5.597,2.379l0.044-0.02
	c2.842,0.188,5.268-0.703,7.276-2.68c0.011-0.01,0.022-0.02,0.032-0.031l-0.064-0.076c-1.164,0.053-1.955-0.299-2.394-1.055
	c-0.121-0.506,0-0.945,0.373-1.318c0.208-0.24,0.527-0.461,0.933-0.658c-2.052,0.055-3.467-0.658-4.27-2.148
	c0.615-0.66,1.404-0.977,2.36-0.924l0.011-0.031c-2.437-0.66-3.721-1.846-3.841-3.568c0.626-0.186,1.272-0.285,1.942-0.273v-0.033
	c-1.898-1.076-2.854-2.557-2.843-4.414c1.745,0.541,3.468,1.23,5.169,2.064c1.559,0.658,2.908,1.338,4.061,2.051
	c0.978,0.551,1.789,1.23,2.47,2.043l0.033-0.033l0.175-0.129c0.473-1.791,1.263-3.547,2.393-5.291l0.021-0.057
	c0.439-0.635,1.01-1.336,1.723-2.096c0.342-0.34,0.736-0.658,1.186-0.953c0.088,0.055-0.043,0.361-0.395,0.932
	c0.943-0.801,1.844-1.205,2.678-1.229c0.186,0.186-0.143,0.549-0.988,1.064c0.67-0.254,1.416-0.418,2.229-0.516
	c0.352,0.043,0.473,0.217,0.373,0.537c-0.285,0.395-1.24,0.758-2.854,1.109c-0.01,0-0.021,0-0.031,0.01l0.055,0.121
	c1.777-0.068,3.324,0.494,4.641,1.668c0.023,0.023,0.045,0.043,0.066,0.055c1.559,1.504,2.457,3.16,2.711,4.984
	c1.383,0.492,2.775,0.482,4.193-0.047c-0.385,1.035-1.582,1.656-3.611,1.879c-0.012-0.014-0.012-0.014-0.012,0v0.197
	c1.855,0.363,3.105,0.428,3.742,0.207l0.021,0.035C41.748,74.82,40.365,75.346,38.445,75.279z"/>
<path fill="#212221" d="M100,94c0,3.314-2.686,6-6,6H56c-3.313,0-6-2.686-6-6V56c0-3.314,2.687-6,6-6h38c3.314,0,6,2.686,6,6V94z"/>
<path fill="#0063DC" d="M65.558,66.756c-4.281,0-7.751,3.467-7.751,7.75c0,4.281,3.47,7.748,7.751,7.748
	c4.28,0,7.749-3.467,7.749-7.748C73.307,70.223,69.838,66.756,65.558,66.756z"/>
<path fill="#FF0084" d="M85.004,66.756c-4.281,0-7.75,3.467-7.75,7.75c0,4.281,3.469,7.748,7.75,7.748
	c4.279,0,7.75-3.467,7.75-7.748C92.754,70.223,89.283,66.756,85.004,66.756z"/>
<path fill="#212221" d="M150.001,94c0,3.312-2.687,6-6,6h-38c-3.313,0-6-2.688-6-6V56c0-3.314,2.687-6,6-6h38c3.313,0,6,2.686,6,6
	V94z"/>
<path fill="#0E76A8" d="M129.255,71.66c-2.203,0-3.189,1.209-3.742,2.061v0.041h-0.027c0.01-0.012,0.02-0.027,0.027-0.041v-1.768
	h-4.148c0.054,1.17,0,12.484,0,12.484h4.148v-6.973c0-0.375,0.027-0.744,0.137-1.012c0.301-0.744,0.984-1.52,2.131-1.52
	c1.502,0,2.102,1.146,2.102,2.824v6.68h4.15v-7.158C134.032,73.443,131.985,71.66,129.255,71.66z"/>
<path fill="#0E76A8" d="M117.02,65.932c-1.419,0-2.348,0.934-2.348,2.158c0,1.197,0.9,2.158,2.293,2.158h0.027
	c1.447,0,2.349-0.961,2.349-2.158C119.313,66.865,118.439,65.932,117.02,65.932z"/>
<rect x="114.917" y="71.953" fill="#0E76A8" width="4.151" height="12.484"/>
<g>
</g>
<g>
</g>
<g>
</g>
<g>
</g>
<g>
</g>
<g>
</g>
</svg>
