<?xml version="1.0" encoding="utf-8"?>
<!-- Generator: Adobe Illustrator 16.0.0, SVG Export Plug-In . SVG Version: 6.00 Build 0)  -->
<!DOCTYPE svg PUBLIC "-//W3C//DTD SVG 1.1//EN" "http://www.w3.org/Graphics/SVG/1.1/DTD/svg11.dtd">
<svg version="1.1" id="Layer_1" xmlns="http://www.w3.org/2000/svg" xmlns:xlink="http://www.w3.org/1999/xlink" x="0px" y="0px"
	 width="51px" height="50px" viewBox="0 0 51 50" enable-background="new 0 0 51 50" xml:space="preserve">
<path fill="#FFFFFF" d="M25.501,0C11.901,0,0.876,11.027,0.876,24.625c0,13.6,11.025,24.623,24.625,24.623
	s24.623-11.023,24.623-24.623C50.124,11.027,39.101,0,25.501,0z M39.099,24.904c-0.297,1.504-1.043,3.074-2.229,4.719
	c-2.568,3.141-5.684,5.215-9.361,6.225h-0.064c-3.787,1.02-7.584,0.932-11.383-0.264c-3.312-1.252-5.99-3.25-8.01-6.014
	c2.008,1.58,3.863,2.369,5.598,2.379l0.043-0.02c2.842,0.188,5.268-0.703,7.277-2.68c0.01-0.01,0.021-0.02,0.031-0.031l-0.064-0.076
	c-1.164,0.053-1.955-0.299-2.393-1.055c-0.121-0.506,0-0.945,0.373-1.318c0.207-0.24,0.527-0.461,0.932-0.658
	c-2.051,0.055-3.467-0.658-4.27-2.148c0.615-0.66,1.404-0.977,2.361-0.924l0.01-0.031c-2.436-0.66-3.721-1.846-3.84-3.568
	c0.625-0.186,1.271-0.285,1.941-0.273v-0.033c-1.898-1.076-2.854-2.557-2.842-4.414c1.744,0.541,3.467,1.23,5.168,2.064
	c1.559,0.658,2.908,1.338,4.061,2.051c0.979,0.551,1.789,1.23,2.471,2.043l0.033-0.033l0.174-0.129
	c0.473-1.791,1.264-3.547,2.393-5.291l0.023-0.057c0.438-0.635,1.01-1.336,1.721-2.096c0.342-0.34,0.736-0.658,1.188-0.953
	c0.088,0.055-0.045,0.361-0.396,0.932c0.945-0.801,1.844-1.205,2.678-1.229c0.188,0.186-0.143,0.549-0.986,1.064
	c0.668-0.254,1.414-0.418,2.227-0.516c0.352,0.043,0.473,0.217,0.373,0.537c-0.285,0.395-1.24,0.758-2.854,1.109
	c-0.01,0-0.021,0-0.031,0.01l0.055,0.121c1.777-0.068,3.324,0.494,4.643,1.668c0.021,0.023,0.043,0.043,0.064,0.055
	c1.559,1.504,2.459,3.16,2.711,4.984c1.383,0.492,2.777,0.482,4.193-0.047c-0.385,1.035-1.58,1.656-3.611,1.879
	c-0.012-0.014-0.012-0.014-0.012,0v0.197c1.855,0.363,3.107,0.428,3.742,0.207l0.023,0.035
	C42.401,24.445,41.019,24.971,39.099,24.904z"/>
</svg>
